<svg xmlns="http://www.w3.org/2000/svg" viewBox="0 0 760 230" role="img" aria-labelledby="title desc">
  <title id="title">Score distribution</title>
  <desc id="desc">Bar chart of validated final scores for the frozen public ranking.</desc>
  <rect width="760" height="230" fill="#ffffff"/>
  <line x1="42" y1="200" x2="748" y2="200" stroke="#98a2b3"/>
  <line x1="42" y1="20" x2="42" y2="200" stroke="#98a2b3"/>
  <text x="42" y="16" font-size="12" fill="#667085">Validated final score</text>
  <text x="692" y="222" font-size="12" fill="#667085">Rank 44</text>
  <text x="42" y="222" font-size="12" fill="#667085">Rank 1</text>
  <rect x="42.0" y="24.0" width="12.89" height="176.0" fill="#16794c"><title>Rank 1 hep-th/9711200: 99.0</title></rect>
  <rect x="56.89" y="29.19999999999999" width="12.89" height="170.8" fill="#16794c"><title>Rank 2 hep-th/9601029: 97.7</title></rect>
  <rect x="71.78999999999999" y="34.80000000000001" width="12.89" height="165.2" fill="#16794c"><title>Rank 3 hep-th/0603001: 96.3</title></rect>
  <rect x="86.68" y="34.80000000000001" width="12.89" height="165.2" fill="#16794c"><title>Rank 4 hep-th/9510017: 96.3</title></rect>
  <rect x="101.57" y="36.80000000000001" width="12.89" height="163.2" fill="#16794c"><title>Rank 5 1412.5148: 95.8</title></rect>
  <rect x="116.47" y="38.0" width="12.89" height="162.0" fill="#a05a00"><title>Rank 6 1905.08255: 95.5</title></rect>
  <rect x="131.36" y="39.599999999999994" width="12.89" height="160.4" fill="#a05a00"><title>Rank 7 1905.08762: 95.1</title></rect>
  <rect x="146.26" y="46.0" width="12.89" height="154.0" fill="#16794c"><title>Rank 8 hep-th/0105097: 93.5</title></rect>
  <rect x="161.15" y="49.599999999999994" width="12.89" height="150.4" fill="#16794c"><title>Rank 9 hep-th/9802109: 92.6</title></rect>
  <rect x="176.04" y="53.599999999999994" width="12.89" height="146.4" fill="#a05a00"><title>Rank 10 hep-th/9610043: 91.6</title></rect>
  <rect x="190.94" y="54.0" width="12.89" height="146.0" fill="#16794c"><title>Rank 11 1810.11442: 91.5</title></rect>
  <rect x="205.83" y="54.80000000000001" width="12.89" height="145.2" fill="#16794c"><title>Rank 12 1812.09613: 91.3</title></rect>
  <rect x="220.72" y="56.400000000000006" width="12.89" height="143.6" fill="#16794c"><title>Rank 13 hep-th/0605073: 90.9</title></rect>
  <rect x="235.62" y="57.599999999999994" width="12.89" height="142.4" fill="#16794c"><title>Rank 14 hep-th/0210114: 90.6</title></rect>
  <rect x="250.51" y="61.599999999999994" width="12.89" height="138.4" fill="#a05a00"><title>Rank 15 1911.12333: 89.6</title></rect>
  <rect x="265.4" y="63.19999999999999" width="12.89" height="136.8" fill="#16794c"><title>Rank 16 1802.04445: 89.2</title></rect>
  <rect x="280.3" y="63.599999999999994" width="12.89" height="136.4" fill="#16794c"><title>Rank 17 1810.12067: 89.1</title></rect>
  <rect x="295.19" y="64.4" width="12.89" height="135.6" fill="#a05a00"><title>Rank 18 1911.11977: 88.9</title></rect>
  <rect x="310.09" y="67.19999999999999" width="12.89" height="132.8" fill="#a05a00"><title>Rank 19 hep-th/0312171: 88.2</title></rect>
  <rect x="324.98" y="68.0" width="12.89" height="132.0" fill="#16794c"><title>Rank 20 1802.04790: 88.0</title></rect>
  <rect x="339.87" y="68.80000000000001" width="12.89" height="131.2" fill="#a05a00"><title>Rank 21 1004.0956: 87.8</title></rect>
  <rect x="354.77" y="69.19999999999999" width="12.89" height="130.8" fill="#16794c"><title>Rank 22 hep-th/0412308: 87.7</title></rect>
  <rect x="369.66" y="69.6" width="12.89" height="130.4" fill="#16794c"><title>Rank 23 hep-th/9910096: 87.6</title></rect>
  <rect x="384.55" y="72.0" width="12.89" height="128.0" fill="#16794c"><title>Rank 24 0912.3462: 87.0</title></rect>
  <rect x="399.45" y="72.8" width="12.89" height="127.2" fill="#16794c"><title>Rank 25 hep-th/0403047: 86.8</title></rect>
  <rect x="414.34" y="73.6" width="12.89" height="126.4" fill="#16794c"><title>Rank 26 1804.00949: 86.6</title></rect>
  <rect x="429.23" y="75.2" width="12.89" height="124.8" fill="#a05a00"><title>Rank 27 2209.06728: 86.2</title></rect>
  <rect x="444.13" y="76.0" width="12.89" height="124.0" fill="#16794c"><title>Rank 28 hep-th/0501052: 86.0</title></rect>
  <rect x="459.02" y="79.6" width="12.89" height="120.4" fill="#a05a00"><title>Rank 29 hep-th/0205131: 85.1</title></rect>
  <rect x="473.91" y="84.8" width="12.89" height="115.2" fill="#a05a00"><title>Rank 30 hep-th/0502058: 83.8</title></rect>
  <rect x="488.81" y="88.0" width="12.89" height="112.0" fill="#6741d9"><title>Rank 31 2402.10129: 83.0</title></rect>
  <rect x="503.7" y="90.0" width="12.89" height="110.0" fill="#a05a00"><title>Rank 32 hep-th/0301240: 82.5</title></rect>
  <rect x="518.6" y="91.2" width="12.89" height="108.8" fill="#a05a00"><title>Rank 33 2011.01953: 82.2</title></rect>
  <rect x="533.49" y="92.4" width="12.89" height="107.6" fill="#a05a00"><title>Rank 34 1207.4485: 81.9</title></rect>
  <rect x="548.38" y="93.2" width="12.89" height="106.8" fill="#a05a00"><title>Rank 35 2208.02757: 81.7</title></rect>
  <rect x="563.28" y="101.6" width="12.89" height="98.4" fill="#a05a00"><title>Rank 36 1306.0533: 79.6</title></rect>
  <rect x="578.17" y="105.6" width="12.89" height="94.4" fill="#a05a00"><title>Rank 37 1806.08362: 78.6</title></rect>
  <rect x="593.06" y="114.0" width="12.89" height="86.0" fill="#16794c"><title>Rank 38 1907.03363: 76.5</title></rect>
  <rect x="607.96" y="118.4" width="12.89" height="81.6" fill="#16794c"><title>Rank 39 1405.0412: 75.4</title></rect>
  <rect x="622.85" y="126.8" width="12.89" height="73.2" fill="#16794c"><title>Rank 40 1604.07818: 73.3</title></rect>
  <rect x="637.74" y="130.4" width="12.89" height="69.6" fill="#16794c"><title>Rank 41 1706.03917: 72.4</title></rect>
  <rect x="652.64" y="132.4" width="12.89" height="67.6" fill="#16794c"><title>Rank 42 0906.0591: 71.9</title></rect>
  <rect x="667.53" y="135.6" width="12.89" height="64.4" fill="#a05a00"><title>Rank 43 2006.06872: 71.1</title></rect>
  <rect x="682.43" y="150.8" width="12.89" height="49.2" fill="#b42318"><title>Rank 44 0809.4266: 67.3</title></rect>
  <rect x="697.32" y="159.6" width="12.89" height="40.4" fill="#b42318"><title>Rank 45 1001.0785: 65.1</title></rect>
  <rect x="712.21" y="189.2" width="12.89" height="10.8" fill="#6741d9"><title>Rank 46 2312.07820: 57.7</title></rect>
  <rect x="727.11" y="200.0" width="12.89" height="0.0" fill="#b42318"><title>Rank 47 0706.3359: 55.0</title></rect>
</svg>
