<svg xmlns="http://www.w3.org/2000/svg" viewBox="0 0 760 230" role="img" aria-labelledby="title desc">
  <title id="title">Score distribution</title>
  <desc id="desc">Bar chart of validated final scores for the frozen public ranking.</desc>
  <rect width="760" height="230" fill="#ffffff"/>
  <line x1="42" y1="200" x2="748" y2="200" stroke="#98a2b3"/>
  <line x1="42" y1="20" x2="42" y2="200" stroke="#98a2b3"/>
  <text x="42" y="16" font-size="12" fill="#667085">Validated final score</text>
  <text x="692" y="222" font-size="12" fill="#667085">Rank 44</text>
  <text x="42" y="222" font-size="12" fill="#667085">Rank 1</text>
  <rect x="42.0" y="24.0" width="11.21" height="176.0" fill="#16794c"><title>Rank 1 hep-th/9711200: 99.0</title></rect>
  <rect x="55.21" y="29.19999999999999" width="11.21" height="170.8" fill="#16794c"><title>Rank 2 hep-th/9601029: 97.7</title></rect>
  <rect x="68.42" y="34.80000000000001" width="11.21" height="165.2" fill="#16794c"><title>Rank 3 hep-th/0603001: 96.3</title></rect>
  <rect x="81.62" y="34.80000000000001" width="11.21" height="165.2" fill="#16794c"><title>Rank 4 hep-th/9510017: 96.3</title></rect>
  <rect x="94.83" y="36.80000000000001" width="11.21" height="163.2" fill="#16794c"><title>Rank 5 1412.5148: 95.8</title></rect>
  <rect x="108.04" y="38.0" width="11.21" height="162.0" fill="#a05a00"><title>Rank 6 1905.08255: 95.5</title></rect>
  <rect x="121.25" y="39.599999999999994" width="11.21" height="160.4" fill="#a05a00"><title>Rank 7 1905.08762: 95.1</title></rect>
  <rect x="134.45" y="46.0" width="11.21" height="154.0" fill="#16794c"><title>Rank 8 hep-th/0105097: 93.5</title></rect>
  <rect x="147.66" y="49.599999999999994" width="11.21" height="150.4" fill="#16794c"><title>Rank 9 hep-th/9802109: 92.6</title></rect>
  <rect x="160.87" y="52.0" width="11.21" height="148.0" fill="#16794c"><title>Rank 10 0705.0016: 92.0</title></rect>
  <rect x="174.08" y="53.599999999999994" width="11.21" height="146.4" fill="#a05a00"><title>Rank 11 hep-th/9610043: 91.6</title></rect>
  <rect x="187.28" y="54.0" width="11.21" height="146.0" fill="#16794c"><title>Rank 12 1810.11442: 91.5</title></rect>
  <rect x="200.49" y="54.400000000000006" width="11.21" height="145.6" fill="#16794c"><title>Rank 13 1304.4926: 91.4</title></rect>
  <rect x="213.7" y="54.80000000000001" width="11.21" height="145.2" fill="#16794c"><title>Rank 14 1812.09613: 91.3</title></rect>
  <rect x="226.91" y="55.599999999999994" width="11.21" height="144.4" fill="#16794c"><title>Rank 15 1307.2892: 91.1</title></rect>
  <rect x="240.11" y="55.599999999999994" width="11.21" height="144.4" fill="#16794c"><title>Rank 16 1511.04085: 91.1</title></rect>
  <rect x="253.32" y="56.400000000000006" width="11.21" height="143.6" fill="#16794c"><title>Rank 17 hep-th/0605073: 90.9</title></rect>
  <rect x="266.53" y="56.80000000000001" width="11.21" height="143.2" fill="#16794c"><title>Rank 18 hep-th/0510251: 90.8</title></rect>
  <rect x="279.74" y="57.599999999999994" width="11.21" height="142.4" fill="#16794c"><title>Rank 19 hep-th/0210114: 90.6</title></rect>
  <rect x="292.94" y="61.599999999999994" width="11.21" height="138.4" fill="#a05a00"><title>Rank 20 1911.12333: 89.6</title></rect>
  <rect x="306.15" y="63.19999999999999" width="11.21" height="136.8" fill="#16794c"><title>Rank 21 1802.04445: 89.2</title></rect>
  <rect x="319.36" y="63.599999999999994" width="11.21" height="136.4" fill="#16794c"><title>Rank 22 1810.12067: 89.1</title></rect>
  <rect x="332.57" y="64.4" width="11.21" height="135.6" fill="#a05a00"><title>Rank 23 1911.11977: 88.9</title></rect>
  <rect x="345.77" y="64.80000000000001" width="11.21" height="135.2" fill="#16794c"><title>Rank 24 hep-th/0401042: 88.8</title></rect>
  <rect x="358.98" y="67.19999999999999" width="11.21" height="132.8" fill="#a05a00"><title>Rank 25 hep-th/0312171: 88.2</title></rect>
  <rect x="372.19" y="68.0" width="11.21" height="132.0" fill="#16794c"><title>Rank 26 1802.04790: 88.0</title></rect>
  <rect x="385.4" y="68.80000000000001" width="11.21" height="131.2" fill="#a05a00"><title>Rank 27 1004.0956: 87.8</title></rect>
  <rect x="398.6" y="69.19999999999999" width="11.21" height="130.8" fill="#16794c"><title>Rank 28 hep-th/0412308: 87.7</title></rect>
  <rect x="411.81" y="69.6" width="11.21" height="130.4" fill="#16794c"><title>Rank 29 hep-th/9910096: 87.6</title></rect>
  <rect x="425.02" y="72.0" width="11.21" height="128.0" fill="#16794c"><title>Rank 30 0912.3462: 87.0</title></rect>
  <rect x="438.23" y="72.8" width="11.21" height="127.2" fill="#16794c"><title>Rank 31 hep-th/0403047: 86.8</title></rect>
  <rect x="451.43" y="73.6" width="11.21" height="126.4" fill="#16794c"><title>Rank 32 1804.00949: 86.6</title></rect>
  <rect x="464.64" y="75.2" width="11.21" height="124.8" fill="#a05a00"><title>Rank 33 2209.06728: 86.2</title></rect>
  <rect x="477.85" y="76.0" width="11.21" height="124.0" fill="#16794c"><title>Rank 34 hep-th/0501052: 86.0</title></rect>
  <rect x="491.06" y="79.6" width="11.21" height="120.4" fill="#a05a00"><title>Rank 35 hep-th/0205131: 85.1</title></rect>
  <rect x="504.26" y="84.8" width="11.21" height="115.2" fill="#a05a00"><title>Rank 36 hep-th/0502058: 83.8</title></rect>
  <rect x="517.47" y="88.0" width="11.21" height="112.0" fill="#6741d9"><title>Rank 37 2402.10129: 83.0</title></rect>
  <rect x="530.6800000000001" y="90.0" width="11.21" height="110.0" fill="#a05a00"><title>Rank 38 hep-th/0301240: 82.5</title></rect>
  <rect x="543.89" y="91.2" width="11.21" height="108.8" fill="#a05a00"><title>Rank 39 2011.01953: 82.2</title></rect>
  <rect x="557.09" y="92.4" width="11.21" height="107.6" fill="#a05a00"><title>Rank 40 1207.4485: 81.9</title></rect>
  <rect x="570.3" y="93.2" width="11.21" height="106.8" fill="#a05a00"><title>Rank 41 2208.02757: 81.7</title></rect>
  <rect x="583.51" y="101.6" width="11.21" height="98.4" fill="#a05a00"><title>Rank 42 1306.0533: 79.6</title></rect>
  <rect x="596.72" y="105.6" width="11.21" height="94.4" fill="#a05a00"><title>Rank 43 1806.08362: 78.6</title></rect>
  <rect x="609.92" y="114.0" width="11.21" height="86.0" fill="#16794c"><title>Rank 44 1907.03363: 76.5</title></rect>
  <rect x="623.13" y="118.4" width="11.21" height="81.6" fill="#16794c"><title>Rank 45 1405.0412: 75.4</title></rect>
  <rect x="636.34" y="126.8" width="11.21" height="73.2" fill="#16794c"><title>Rank 46 1604.07818: 73.3</title></rect>
  <rect x="649.55" y="130.4" width="11.21" height="69.6" fill="#16794c"><title>Rank 47 1706.03917: 72.4</title></rect>
  <rect x="662.75" y="132.4" width="11.21" height="67.6" fill="#16794c"><title>Rank 48 0906.0591: 71.9</title></rect>
  <rect x="675.96" y="135.6" width="11.21" height="64.4" fill="#a05a00"><title>Rank 49 2006.06872: 71.1</title></rect>
  <rect x="689.17" y="150.8" width="11.21" height="49.2" fill="#b42318"><title>Rank 50 0809.4266: 67.3</title></rect>
  <rect x="702.38" y="159.6" width="11.21" height="40.4" fill="#b42318"><title>Rank 51 1001.0785: 65.1</title></rect>
  <rect x="715.58" y="189.2" width="11.21" height="10.8" fill="#6741d9"><title>Rank 52 2312.07820: 57.7</title></rect>
  <rect x="728.79" y="200.0" width="11.21" height="0.0" fill="#b42318"><title>Rank 53 0706.3359: 55.0</title></rect>
</svg>
